<svg width="52" height="51" viewBox="0 0 52 51" fill="none" xmlns="http://www.w3.org/2000/svg">
<g clip-path="url(#clip0_45_119)">
<path d="M41 0.853516H11C5.47715 0.853516 1 5.33067 1 10.8535V40.8535C1 46.3764 5.47715 50.8535 11 50.8535H41C46.5228 50.8535 51 46.3764 51 40.8535V10.8535C51 5.33067 46.5228 0.853516 41 0.853516Z" fill="#283954"/>
<path d="M41.0003 1.27051H11.0003C5.7076 1.27051 1.41699 5.56112 1.41699 10.8538V40.8538C1.41699 46.1465 5.7076 50.4371 11.0003 50.4371H41.0003C46.2931 50.4371 50.5837 46.1465 50.5837 40.8538V10.8538C50.5837 5.56112 46.2931 1.27051 41.0003 1.27051Z" fill="white" stroke="#D9D9D9" stroke-opacity="0.6"/>
<path d="M39.75 12.1035H12.25C11.587 12.1035 10.9511 12.3669 10.4823 12.8358C10.0134 13.3046 9.75 13.9405 9.75 14.6035V37.1035C9.75 37.7665 10.0134 38.4024 10.4823 38.8713C10.9511 39.3401 11.587 39.6035 12.25 39.6035H39.75C40.4131 39.6035 41.0489 39.3401 41.5177 38.8713C41.9866 38.4024 42.25 37.7665 42.25 37.1035V14.6035C42.25 13.9405 41.9866 13.3046 41.5177 12.8358C41.0489 12.3669 40.4131 12.1035 39.75 12.1035ZM26 30.8535C24.0115 30.8514 22.1051 30.0606 20.699 28.6545C19.2929 27.2484 18.5021 25.342 18.5 23.3535C18.5 23.022 18.6317 22.704 18.8661 22.4696C19.1005 22.2352 19.4185 22.1035 19.75 22.1035C20.0815 22.1035 20.3995 22.2352 20.6339 22.4696C20.8683 22.704 21 23.022 21 23.3535C21 24.6796 21.5268 25.9513 22.4645 26.889C23.4022 27.8268 24.6739 28.3535 26 28.3535C27.3261 28.3535 28.5978 27.8268 29.5355 26.889C30.4732 25.9513 31 24.6796 31 23.3535C31 23.022 31.1317 22.704 31.3661 22.4696C31.6005 22.2352 31.9185 22.1035 32.25 22.1035C32.5815 22.1035 32.8995 22.2352 33.1339 22.4696C33.3683 22.704 33.5 23.022 33.5 23.3535C33.4979 25.342 32.7071 27.2484 31.301 28.6545C29.8949 30.0606 27.9885 30.8514 26 30.8535ZM12.25 17.1035V14.6035H39.75V17.1035H12.25Z" fill="#9E2EB1"/>
</g>
<defs>
<clipPath id="clip0_45_119">
<rect width="52" height="51" fill="white"/>
</clipPath>
</defs>
</svg>
