<svg width="52" height="51" viewBox="0 0 52 51" fill="none" xmlns="http://www.w3.org/2000/svg">
<g clip-path="url(#clip0_44_77)">
<path d="M41 0.853516H11C5.47715 0.853516 1 5.33067 1 10.8535V40.8535C1 46.3764 5.47715 50.8535 11 50.8535H41C46.5228 50.8535 51 46.3764 51 40.8535V10.8535C51 5.33067 46.5228 0.853516 41 0.853516Z" fill="white"/>
<path d="M41.0003 1.27051H11.0003C5.7076 1.27051 1.41699 5.56112 1.41699 10.8538V40.8538C1.41699 46.1465 5.7076 50.4371 11.0003 50.4371H41.0003C46.2931 50.4371 50.5837 46.1465 50.5837 40.8538V10.8538C50.5837 5.56112 46.2931 1.27051 41.0003 1.27051Z" stroke="#D9D9D9" stroke-opacity="0.6"/>
<path d="M20.2825 9.38027L12.667 6.68652V40.758L20.2868 45.0199L39.3337 33.9737V25.2937L22.4323 19.3234L25.7502 27.6268L31.0093 30.1078L20.2825 36.3342V9.38027Z" fill="#008373"/>
</g>
<defs>
<clipPath id="clip0_44_77">
<rect width="52" height="51" fill="white"/>
</clipPath>
</defs>
</svg>
