<svg width="50" height="47" viewBox="0 0 50 47" fill="none" xmlns="http://www.w3.org/2000/svg">
<g clip-path="url(#clip0_45_86)">
<mask id="mask0_45_86" style="mask-type:luminance" maskUnits="userSpaceOnUse" x="0" y="0" width="50" height="47">
<path d="M50 0.853516H0V46.9545H50V0.853516Z" fill="white"/>
</mask>
<g mask="url(#mask0_45_86)">
<path d="M1.03223 34.4165L17.6573 5.42676L32.0632 13.8L15.4402 42.7897L1.03223 34.4165Z" fill="#FBBC04"/>
<path d="M48.8271 34.3154L32.1918 5.3153C30.0444 1.22659 25.0124 -0.335522 20.9508 1.82629C16.8892 3.98811 15.3395 9.05369 17.4849 13.1424C17.5791 13.3216 17.6795 13.4968 17.7859 13.6699L34.4212 42.67C36.6648 46.7052 41.7336 48.1457 45.742 45.887C49.7504 43.6283 51.1813 38.5257 48.9377 34.4906C48.9008 34.4247 48.8639 34.3607 48.8271 34.2969V34.3154Z" fill="#4285F4"/>
<path d="M8.31767 46.9114C12.9113 46.9114 16.6353 43.1626 16.6353 38.5382C16.6353 33.9138 12.9113 30.165 8.31767 30.165C3.72394 30.165 0 33.9138 0 38.5382C0 43.1626 3.72394 46.9114 8.31767 46.9114Z" fill="#34A853"/>
</g>
</g>
<defs>
<clipPath id="clip0_45_86">
<rect width="50" height="47" fill="white"/>
</clipPath>
</defs>
</svg>
