<svg width="50" height="51" viewBox="0 0 50 51" fill="none" xmlns="http://www.w3.org/2000/svg">
<g clip-path="url(#clip0_45_82)">
<path fill-rule="evenodd" clip-rule="evenodd" d="M50 25.8535C50 12.0474 38.8061 0.853516 25 0.853516C11.1939 0.853516 0 12.0474 0 25.8535C0 38.3306 9.14083 48.6738 21.0942 50.5513V33.0818H14.7448V25.8535H21.0942V20.3444C21.0942 14.0794 24.8277 10.6164 30.5372 10.6164C33.2723 10.6164 36.1342 11.1051 36.1342 11.1051V17.2577H32.9805C29.8762 17.2577 28.9058 19.1843 28.9058 21.1635V25.8533H35.8387L34.7313 33.0816H28.9057V50.5511C40.8589 48.677 50 38.3341 50 25.8535Z" fill="#1977F3"/>
<path fill-rule="evenodd" clip-rule="evenodd" d="M34.7315 33.0813L35.839 25.853H28.9062V21.1632C28.9062 19.1874 29.873 17.2573 32.9809 17.2573H36.1345V11.1048C36.1345 11.1048 33.2729 10.6162 30.5375 10.6162C24.8281 10.6162 21.0944 14.0757 21.0944 20.3441V25.8532H14.7451V33.0815H21.0944V50.551C22.3671 50.7512 23.6714 50.8532 25.0004 50.8532C26.3293 50.8532 27.6336 50.7477 28.9062 50.551V33.0815L34.7315 33.0813Z" fill="#FEFEFE"/>
</g>
<defs>
<clipPath id="clip0_45_82">
<rect width="50" height="51" fill="white"/>
</clipPath>
</defs>
</svg>
