<svg width="52" height="52" viewBox="0 0 52 52" fill="none" xmlns="http://www.w3.org/2000/svg">
<g clip-path="url(#clip0_45_95)">
<path d="M1 17.6243C1 11.6922 1 8.72606 2.17278 6.46837C3.16106 4.56583 4.71231 3.01458 6.61485 2.0263C8.87254 0.853516 11.8386 0.853516 17.7708 0.853516H34.2292C40.1614 0.853516 43.1275 0.853516 45.3851 2.0263C47.2877 3.01458 48.839 4.56583 49.8272 6.46837C51 8.72606 51 11.6922 51 17.6243V34.0827C51 40.0149 51 42.981 49.8272 45.2386C48.839 47.1412 47.2877 48.6925 45.3851 49.6807C43.1275 50.8535 40.1614 50.8535 34.2292 50.8535H17.7708C11.8386 50.8535 8.87254 50.8535 6.61485 49.6807C4.71231 48.6925 3.16106 47.1412 2.17278 45.2386C1 42.981 1 40.0149 1 34.0827V17.6243Z" fill="#283954"/>
<path d="M17.7712 1.11426H34.2295C37.1999 1.11426 39.4119 1.11447 41.1639 1.25997C42.9127 1.4052 44.1799 1.69386 45.2654 2.25772C47.1204 3.22131 48.6328 4.73377 49.5965 6.58874C50.1603 7.67422 50.449 8.94144 50.5942 10.6903C50.7397 12.4422 50.7399 14.6542 50.7399 17.6246V34.083C50.7399 37.0534 50.7397 39.2654 50.5942 41.0173C50.449 42.7662 50.1603 44.0334 49.5965 45.1189C48.6328 46.9739 47.1204 48.4863 45.2654 49.4499C44.1799 50.0138 42.9127 50.3024 41.1639 50.4477C39.4119 50.5932 37.1999 50.5934 34.2295 50.5934H17.7712C14.8007 50.5934 12.5888 50.5932 10.8368 50.4477C9.08792 50.3024 7.8207 50.0138 6.73522 49.4499C4.88025 48.4863 3.36778 46.9739 2.4042 45.1189C1.84034 44.0334 1.55168 42.7662 1.40645 41.0173C1.26095 39.2654 1.26074 37.0534 1.26074 34.083V17.6246C1.26074 14.6542 1.26095 12.4422 1.40645 10.6903C1.55168 8.94144 1.84034 7.67422 2.4042 6.58874C3.36778 4.73377 4.88025 3.22131 6.73522 2.25772C7.8207 1.69386 9.08792 1.4052 10.8368 1.25997C12.5888 1.11447 14.8007 1.11426 17.7712 1.11426Z" fill="white" stroke="#D9D9D9" stroke-opacity="0.6"/>
<path fill-rule="evenodd" clip-rule="evenodd" d="M43 26.256C43 25.0002 42.8873 23.7929 42.678 22.6338H26V29.4837H35.5303C35.1198 31.6972 33.8722 33.5727 31.9967 34.8284V39.2716H37.7197C41.0681 36.1887 43 31.6489 43 26.256Z" fill="#4285F4"/>
<path fill-rule="evenodd" clip-rule="evenodd" d="M25.9997 43.5617C30.7809 43.5617 34.7894 41.9759 37.7193 39.2714L31.9963 34.8282C30.4106 35.8907 28.3823 36.5185 25.9997 36.5185C21.3874 36.5185 17.4835 33.4034 16.091 29.2178H10.1748V33.8059C13.0886 39.5933 19.0773 43.5617 25.9997 43.5617Z" fill="#34A853"/>
<path fill-rule="evenodd" clip-rule="evenodd" d="M16.0917 29.2187C15.7376 28.1562 15.5363 27.0213 15.5363 25.8541C15.5363 24.6869 15.7376 23.552 16.0917 22.4895V17.9014H10.1755C8.97618 20.292 8.29199 22.9966 8.29199 25.8541C8.29199 28.7116 8.97618 31.4162 10.1755 33.8068L16.0917 29.2187Z" fill="#FBBC05"/>
<path fill-rule="evenodd" clip-rule="evenodd" d="M25.9997 15.1885C28.5996 15.1885 30.9338 16.0821 32.769 17.8368L37.8481 12.7577C34.7813 9.90025 30.7729 8.14551 25.9997 8.14551C19.0773 8.14551 13.0886 12.1137 10.1748 17.9011L16.091 22.4893C17.4835 18.3036 21.3874 15.1885 25.9997 15.1885Z" fill="#EA4335"/>
</g>
<defs>
<clipPath id="clip0_45_95">
<rect width="52" height="52" fill="white"/>
</clipPath>
</defs>
</svg>
