<svg width="50" height="51" viewBox="0 0 50 51" fill="none" xmlns="http://www.w3.org/2000/svg">
<g clip-path="url(#clip0_45_103)">
<path d="M25.0081 0.853516C14.5709 0.853516 11.5184 0.864283 10.9251 0.913504C8.78315 1.09155 7.45031 1.42879 5.99827 2.15174C4.87925 2.7074 3.99673 3.35151 3.12574 4.25441C1.53949 5.90103 0.57814 7.9268 0.230127 10.3348C0.0609314 11.5039 0.0117073 11.7422 0.00170916 17.7134C-0.00213645 19.7038 0.00170916 22.3233 0.00170916 25.8369C0.00170916 36.2657 0.0132452 39.3151 0.0632391 39.9074C0.236284 41.9916 0.563144 43.3029 1.25532 44.7372C2.57815 47.4828 5.1046 49.544 8.08093 50.313C9.11156 50.5784 10.2498 50.7245 11.711 50.7937C12.3302 50.8206 18.6405 50.8399 24.9547 50.8399C31.2689 50.8399 37.5831 50.8322 38.1868 50.8014C39.8788 50.7218 40.8613 50.59 41.9477 50.3092C44.9433 49.5363 47.4235 47.5059 48.7733 44.7218C49.4521 43.3221 49.7962 41.9608 49.9519 39.9854C49.9858 39.5547 50 32.6879 50 25.8304C50 18.9717 49.9846 12.1175 49.9508 11.6869C49.7931 9.67953 49.449 8.3298 48.7483 6.90315C48.1734 5.73529 47.5351 4.86315 46.6083 3.97139C44.9544 2.39169 42.9317 1.43033 40.5214 1.0827C39.3536 0.913889 39.1209 0.863898 33.1451 0.853516H25.0081Z" fill="url(#paint0_radial_45_103)"/>
<path d="M25.0081 1C14.5709 1 11.5184 1.01077 10.9251 1.05999C8.78315 1.23803 7.45031 1.57527 5.99827 2.29822C4.87925 2.85388 3.99673 3.49799 3.12574 4.40089C1.53949 6.04751 0.57814 8.07328 0.230127 10.4813C0.0609314 11.6504 0.0117073 11.8887 0.00170916 17.8599C-0.00213645 19.8503 0.00170916 22.4698 0.00170916 25.9834C0.00170916 36.4122 0.0132452 39.4616 0.0632391 40.0539C0.236284 42.1381 0.563144 43.4494 1.25532 44.8837C2.57815 47.6293 5.1046 49.6905 8.08093 50.4595C9.11156 50.7249 10.2498 50.871 11.711 50.9402C12.3302 50.9671 18.6405 50.9864 24.9547 50.9864C31.2689 50.9864 37.5831 50.9787 38.1868 50.9479C39.8788 50.8683 40.8613 50.7365 41.9477 50.4557C44.9433 49.6828 47.4235 47.6524 48.7733 44.8683C49.4521 43.4686 49.7962 42.1073 49.9519 40.1319C49.9858 39.7012 50 32.8344 50 25.9769C50 19.1182 49.9846 12.264 49.9508 11.8334C49.7931 9.82601 49.449 8.47628 48.7483 7.04963C48.1734 5.88177 47.5351 5.00963 46.6083 4.11787C44.9544 2.53817 42.9317 1.57681 40.5214 1.22918C39.3536 1.06037 39.1209 1.01038 33.1451 1H25.0081Z" fill="url(#paint1_radial_45_103)"/>
<path d="M24.9967 7.39062C19.9838 7.39062 19.3547 7.41254 17.3858 7.50214C15.4209 7.59213 14.0796 7.90322 12.9059 8.35968C11.6919 8.83112 10.6621 9.46181 9.63618 10.4881C8.60938 11.5141 7.9788 12.5439 7.50577 13.7575C7.04817 14.9315 6.73669 16.2732 6.64825 18.2374C6.56018 20.2063 6.53711 20.8358 6.53711 25.8487C6.53711 30.8616 6.55941 31.4888 6.64863 33.4577C6.739 35.4226 7.05009 36.7639 7.50616 37.9375C7.97797 39.1515 8.60863 40.1814 9.63502 41.2073C10.6606 42.234 11.6904 42.8663 12.9036 43.3377C14.078 43.7942 15.4197 44.1053 17.3843 44.1953C19.3532 44.2848 19.9819 44.3067 24.9944 44.3067C30.0077 44.3067 30.6349 44.2848 32.6038 44.1953C34.5688 44.1053 35.9116 43.7942 37.0859 43.3377C38.2996 42.8663 39.3278 42.234 40.3535 41.2073C41.3802 40.1814 42.0109 39.1516 42.4838 37.938C42.9376 36.764 43.249 35.4223 43.3413 33.458C43.4298 31.4891 43.4529 30.8616 43.4529 25.8487C43.4529 20.8358 43.4298 20.2067 43.3413 18.2378C43.249 16.2728 42.9376 14.9315 42.4838 13.7579C42.0109 12.5439 41.3802 11.5141 40.3535 10.4881C39.3268 9.46139 38.3 8.83074 37.0849 8.35968C35.9081 7.90322 34.5661 7.59213 32.6011 7.50214C30.6322 7.41254 30.0054 7.39062 24.9909 7.39062H24.9967ZM23.3409 10.7169C23.8323 10.7161 24.3807 10.7169 24.9967 10.7169C29.925 10.7169 30.5092 10.7346 32.4553 10.823C34.255 10.9053 35.2317 11.2061 35.8824 11.4587C36.7437 11.7933 37.3579 12.1931 38.0035 12.8392C38.6495 13.4852 39.0495 14.1005 39.3847 14.9619C39.6374 15.6118 39.9385 16.5885 40.0204 18.3882C40.1089 20.3339 40.1281 20.9184 40.1281 25.8444C40.1281 30.7705 40.1089 31.3549 40.0204 33.3007C39.9382 35.1004 39.6374 36.0771 39.3847 36.727C39.0502 37.5884 38.6495 38.2017 38.0035 38.8474C37.3575 39.4935 36.7441 39.8933 35.8824 40.2279C35.2325 40.4817 34.255 40.7817 32.4553 40.8639C30.5095 40.9524 29.925 40.9716 24.9967 40.9716C20.068 40.9716 19.4839 40.9524 17.5381 40.8639C15.7384 40.7809 14.7617 40.4802 14.1107 40.2275C13.2493 39.893 12.634 39.493 11.988 38.8471C11.342 38.201 10.9421 37.5872 10.6068 36.7255C10.3541 36.0756 10.053 35.0989 9.97109 33.2992C9.88261 31.3534 9.86495 30.7689 9.86495 25.8398C9.86495 20.9108 9.88261 20.3293 9.97109 18.3835C10.0534 16.5839 10.3541 15.6071 10.6068 14.9565C10.9412 14.0951 11.342 13.4799 11.988 12.8338C12.634 12.1878 13.2493 11.7878 14.1107 11.4525C14.7614 11.1988 15.7384 10.8988 17.5381 10.8161C19.2409 10.7392 19.9007 10.7161 23.3409 10.7123V10.7169ZM34.8495 13.7817C33.6266 13.7817 32.6345 14.7727 32.6345 15.9959C32.6345 17.2188 33.6266 18.2109 34.8495 18.2109C36.0723 18.2109 37.0645 17.2188 37.0645 15.9959C37.0645 14.7731 36.0723 13.7817 34.8495 13.7817ZM24.9967 16.3697C19.7619 16.3697 15.5177 20.6139 15.5177 25.8487C15.5177 31.0835 19.7619 35.3258 24.9967 35.3258C30.2315 35.3258 34.4742 31.0835 34.4742 25.8487C34.4742 20.6139 30.2315 16.3697 24.9967 16.3697ZM24.9967 19.696C28.3946 19.696 31.1494 22.4505 31.1494 25.8487C31.1494 29.2465 28.3946 32.0014 24.9967 32.0014C21.5985 32.0014 18.844 29.2465 18.844 25.8487C18.844 22.4505 21.5985 19.696 24.9967 19.696Z" fill="white"/>
</g>
<defs>
<radialGradient id="paint0_radial_45_103" cx="0" cy="0" r="1" gradientUnits="userSpaceOnUse" gradientTransform="translate(13.2813 54.6899) rotate(-90) scale(49.5402 46.0889)">
<stop stop-color="#FFDD55"/>
<stop offset="0.1" stop-color="#FFDD55"/>
<stop offset="0.5" stop-color="#FF543E"/>
<stop offset="1" stop-color="#C837AB"/>
</radialGradient>
<radialGradient id="paint1_radial_45_103" cx="0" cy="0" r="1" gradientUnits="userSpaceOnUse" gradientTransform="translate(-8.37527 4.60093) rotate(78.6776) scale(22.1449 91.3051)">
<stop stop-color="#3771C8"/>
<stop offset="0.128" stop-color="#3771C8"/>
<stop offset="1" stop-color="#6600FF" stop-opacity="0"/>
</radialGradient>
<clipPath id="clip0_45_103">
<rect width="50" height="51" fill="white"/>
</clipPath>
</defs>
</svg>
