<svg width="50" height="51" viewBox="0 0 50 51" fill="none" xmlns="http://www.w3.org/2000/svg">
<g clip-path="url(#clip0_45_108)">
<path d="M0 17.6243C0 11.6922 0 8.72606 1.17278 6.46837C2.16107 4.56583 3.71232 3.01458 5.61485 2.02629C7.87254 0.853516 10.8387 0.853516 16.7708 0.853516H33.2292C39.1613 0.853516 42.1275 0.853516 44.3852 2.02629C46.2877 3.01458 47.8389 4.56583 48.8273 6.46837C50 8.72606 50 11.6922 50 17.6243V34.0827C50 40.0148 50 42.981 48.8273 45.2387C47.8389 47.1412 46.2877 48.6924 44.3852 49.6808C42.1275 50.8535 39.1613 50.8535 33.2292 50.8535H16.7708C10.8387 50.8535 7.87254 50.8535 5.61485 49.6808C3.71232 48.6924 2.16107 47.1412 1.17278 45.2387C0 42.981 0 40.0148 0 34.0827V17.6243Z" fill="#0A66C2"/>
<path d="M11.2223 16.381C13.6178 16.381 15.5597 14.4391 15.5597 12.0436C15.5597 9.648 13.6178 7.70605 11.2223 7.70605C8.82671 7.70605 6.88477 9.648 6.88477 12.0436C6.88477 14.4391 8.82671 16.381 11.2223 16.381Z" fill="white"/>
<path d="M19.5322 19.5868H26.7209V22.88C26.7209 22.88 28.6716 18.9785 33.9792 18.9785C38.7139 18.9785 42.6361 21.3109 42.6361 28.4203V43.4119H35.1866V30.2368C35.1866 26.043 32.9476 25.5818 31.2415 25.5818C27.7006 25.5818 27.0945 28.6359 27.0945 30.7839V43.4119H19.5322V19.5868Z" fill="white"/>
<path d="M7.44141 19.5869H15.0036V43.412H7.44141V19.5869Z" fill="white"/>
</g>
<defs>
<clipPath id="clip0_45_108">
<rect width="50" height="51" fill="white"/>
</clipPath>
</defs>
</svg>
