<svg width="52" height="52" viewBox="0 0 52 52" fill="none" xmlns="http://www.w3.org/2000/svg">
<g clip-path="url(#clip0_45_114)">
<path d="M41 0.853516H11C5.47715 0.853516 1 5.33067 1 10.8535V40.8535C1 46.3764 5.47715 50.8535 11 50.8535H41C46.5228 50.8535 51 46.3764 51 40.8535V10.8535C51 5.33067 46.5228 0.853516 41 0.853516Z" fill="white" stroke="#D9D9D9" stroke-opacity="0.6"/>
<path d="M41.0003 1.27051H11.0003C5.7076 1.27051 1.41699 5.56112 1.41699 10.8538V40.8538C1.41699 46.1465 5.7076 50.4371 11.0003 50.4371H41.0003C46.2931 50.4371 50.5837 46.1465 50.5837 40.8538V10.8538C50.5837 5.56112 46.2931 1.27051 41.0003 1.27051Z" stroke="#D9D9D9" stroke-opacity="0.1"/>
<path d="M41.189 20.8452L39.0884 13.4903C38.947 13.0023 38.6517 12.5732 38.2465 12.2669C37.8412 11.9607 37.3478 11.7938 36.8398 11.791H15.1601C14.6521 11.7938 14.1587 11.9607 13.7535 12.2669C13.3482 12.5732 13.0529 13.0023 12.9115 13.4903L10.811 20.8452C10.781 20.9495 10.7657 21.0575 10.7656 21.166V23.5098C10.7656 24.4194 10.9774 25.3165 11.3842 26.1302C11.791 26.9438 12.3816 27.6515 13.1093 28.1973V38.7442C13.1093 39.0549 13.2328 39.353 13.4525 39.5728C13.6724 39.7925 13.9704 39.916 14.2812 39.916H37.7187C38.0295 39.916 38.3275 39.7925 38.5474 39.5728C38.7671 39.353 38.8906 39.0549 38.8906 38.7442V28.1973C39.6183 27.6515 40.209 26.9438 40.6157 26.1302C41.0225 25.3165 41.2343 24.4194 41.2343 23.5098V21.166C41.2342 21.0575 41.219 20.9495 41.189 20.8452ZM20.1406 23.5098C20.1404 24.1143 19.9843 24.7086 19.6874 25.2352C19.3905 25.7618 18.9627 26.2029 18.4455 26.516C17.9284 26.8291 17.3392 27.0035 16.735 27.0224C16.1307 27.0413 15.5318 26.9041 14.996 26.624C14.9145 26.5606 14.8249 26.5083 14.7295 26.4688C14.233 26.1509 13.8244 25.7133 13.5413 25.1963C13.2582 24.6792 13.1096 24.0993 13.1093 23.5098V22.3378H20.1406V23.5098ZM29.5156 23.5098C29.5156 24.4422 29.1452 25.3363 28.4859 25.9957C27.8265 26.655 26.9324 27.0253 26 27.0253C25.0675 27.0253 24.1734 26.655 23.514 25.9957C22.8547 25.3363 22.4843 24.4422 22.4843 23.5098V22.3378H29.5156V23.5098ZM38.8906 23.5098C38.8901 24.0994 38.7414 24.6794 38.458 25.1965C38.1746 25.7136 37.7657 26.1511 37.269 26.4688C37.1749 26.5084 37.0862 26.5601 37.0053 26.6226C36.4696 26.9029 35.8707 27.0404 35.2664 27.0218C34.662 27.0031 34.0727 26.8288 33.5554 26.5159C33.038 26.203 32.6101 25.7619 32.313 25.2353C32.016 24.7087 31.8596 24.1144 31.8593 23.5098V22.3378H38.8906V23.5098Z" fill="#D7692A"/>
</g>
<defs>
<clipPath id="clip0_45_114">
<rect width="52" height="52" fill="white"/>
</clipPath>
</defs>
</svg>
