<svg width="50" height="51" viewBox="0 0 50 51" fill="none" xmlns="http://www.w3.org/2000/svg">
<g clip-path="url(#clip0_45_124)">
<path d="M0 17.6243C0 11.6922 0 8.72606 1.17278 6.46837C2.16107 4.56583 3.71232 3.01458 5.61485 2.02629C7.87254 0.853516 10.8387 0.853516 16.7708 0.853516H33.2292C39.1613 0.853516 42.1275 0.853516 44.3852 2.02629C46.2877 3.01458 47.8389 4.56583 48.8273 6.46837C50 8.72606 50 11.6922 50 17.6243V34.0827C50 40.0148 50 42.981 48.8273 45.2387C47.8389 47.1412 46.2877 48.6924 44.3852 49.6808C42.1275 50.8535 39.1613 50.8535 33.2292 50.8535H16.7708C10.8387 50.8535 7.87254 50.8535 5.61485 49.6808C3.71232 48.6924 2.16107 47.1412 1.17278 45.2387C0 42.981 0 40.0148 0 34.0827V17.6243Z" fill="#FF0000"/>
<path fill-rule="evenodd" clip-rule="evenodd" d="M39.6724 13.1146C41.2787 13.5471 42.5452 14.8136 42.9776 16.4198C43.7808 19.3543 43.7498 25.4704 43.7498 25.4704C43.7498 25.4704 43.7498 31.5556 42.9776 34.4901C42.5452 36.0964 41.2787 37.3628 39.6724 37.7953C36.7379 38.5676 24.9999 38.5676 24.9999 38.5676C24.9999 38.5676 13.2928 38.5676 10.3274 37.7644C8.72117 37.332 7.45469 36.0655 7.02223 34.4592C6.25 31.5556 6.25 25.4395 6.25 25.4395C6.25 25.4395 6.25 19.3543 7.02223 16.4198C7.45469 14.8136 8.75208 13.5161 10.3274 13.0837C13.2619 12.3115 24.9999 12.3115 24.9999 12.3115C24.9999 12.3115 36.7379 12.3115 39.6724 13.1146ZM31.0233 25.2251L21.2622 30.8469V19.6031L31.0233 25.2251Z" fill="white"/>
</g>
<defs>
<clipPath id="clip0_45_124">
<rect width="50" height="51" fill="white"/>
</clipPath>
</defs>
</svg>
